<svg xmlns="http://www.w3.org/2000/svg" version="1.1" xmlns:xlink="http://www.w3.org/1999/xlink" xmlns:svgjs="http://svgjs.dev/svgjs" width="1440" height="560" preserveAspectRatio="none" viewBox="0 0 1440 560"><g mask="url(&quot;#SvgjsMask1013&quot;)" fill="none"><rect width="1440" height="560" x="0" y="0" fill="rgba(231, 243, 232, 1)"></rect><path d="M140 54.44C123.77 54.44 105.78 96.19 105.78 140C105.78 203.14 123.84 268.33 140 268.33C156.05 268.33 170.2 203.35 170.2 140C170.2 96.4 155.98 54.44 140 54.44" stroke="rgba(82, 95, 163, 1)" stroke-width="2"></path><path d="M175 0C228.72 18.5 233.89 48.2 280 48.2C303.68 48.2 289.38 8.68 314.59 0C359.38 -15.42 367.29 0 420 0C490 0 490 0 560 0C630 0 630 0 700 0C770 0 770 0 840 0C886.13 0 888.57 -8.86 932.27 0C958.57 5.33 953.37 23.2 980 28.38C1047.24 41.46 1052.54 45.37 1120 36.52C1160.72 31.18 1156.4 10.42 1196.36 0C1226.4 -7.84 1228.18 0 1260 0C1318.34 0 1325.85 -13.55 1376.67 0C1395.85 5.11 1390.33 17.61 1400 37.33C1424.64 87.61 1423.39 88.35 1445.29 140C1474.83 209.68 1467.62 214.37 1502.89 280C1514.97 302.49 1533.82 292.91 1540 316.24C1552.37 362.91 1540 368.12 1540 420C1540 490 1575 525 1540 560C1505 595 1470 560 1400 560C1330 560 1330 560 1260 560C1190 560 1190 560 1120 560C1050 560 1050 560 980 560C910 560 910 560 840 560C770 560 770 560 700 560C630 560 630 560 560 560C490 560 490 560 420 560C350 560 350 560 280 560C210 560 210 560 140 560C101.28 560 62.55 578.19 62.55 560C62.55 531.52 97.38 509.23 140 466.67C167.48 439.23 173 445.28 202.76 420C243 385.81 233.52 358.97 280 347.74C342.14 332.72 362.32 386.69 420 367.5C464.14 352.82 483.64 325.54 483.64 280C483.64 225.79 465.69 176.57 420 168C363.87 157.48 352.77 211.77 280 241.82C217.15 267.77 212.55 258.04 148.75 280C142.55 282.13 145.01 285.64 140 290C70.63 350.34 41.1 412.33 0 409.39C-28.9 407.33 0 344.69 0 280C0 210 0 210 0 140C0 70 -35 35 0 0C35 -35 70 0 140 0C157.5 0 158.72 -5.6 175 0" stroke="rgba(82, 95, 163, 1)" stroke-width="2"></path><path d="M700 265.37C685.63 265.37 668.39 269.31 668.39 280C668.39 294.77 687.48 316.3 700 316.3C710.09 316.3 713.61 296.8 713.61 280C713.61 271.34 708.24 265.37 700 265.37" stroke="rgba(82, 95, 163, 1)" stroke-width="2"></path><path d="M1120 244.62C1092.31 244.62 1069.69 259.93 1069.69 280C1069.69 303.59 1090.42 331.94 1120 331.94C1167.51 331.94 1223.87 302.45 1223.87 280C1223.87 258.79 1169.4 244.62 1120 244.62" stroke="rgba(82, 95, 163, 1)" stroke-width="2"></path><path d="M840 388.33C804 389.46 771.79 397.66 771.79 420C771.79 449.44 798.95 489.49 840 491.89C903.05 495.58 912.75 465.1 980 432.17C986.17 429.15 986.83 425.57 986.83 420C986.83 416.23 984.57 414.48 980 413.49C911.15 398.64 908.1 386.2 840 388.33" stroke="rgba(82, 95, 163, 1)" stroke-width="2"></path><path d="M85.22 0C94.17 44.77 28.31 69.89 28 140C27.7 209.89 91.99 218.28 84 280C77.99 326.46 25.11 356.36 0 356.36C-16.89 356.36 0 318.18 0 280C0 210 0 210 0 140C0 70 -26.49 43.51 0 0C16.12 -26.49 80.17 -25.23 85.22 0" stroke="rgba(82, 95, 163, 1)" stroke-width="2"></path><path d="M238.82 140C238.82 122.26 257.9 105.57 280 105.57C308.49 105.57 340 122.1 340 140C340 158.4 308.27 178.18 280 178.18C257.68 178.18 238.82 158.56 238.82 140" stroke="rgba(82, 95, 163, 1)" stroke-width="2"></path><path d="M420 92.54C385.41 48.28 355.76 29.47 355.76 0C355.76 -16.8 387.88 0 420 0C465.5 0 470.85 -13.38 511 0C540.85 9.95 535.69 46.67 560 46.67C583.9 46.67 578.15 9.76 607.42 0C648.15 -13.58 653.71 0 700 0C770 0 770 0 840 0C846.37 0 847.19 -3 852.73 0C917.19 34.84 911.31 56.52 980 75.68C1044.95 93.8 1051.23 84.11 1120 74.57C1191.23 64.69 1203.54 19.25 1260 36.84C1308.54 51.96 1287.41 96.69 1330 140C1357.41 167.87 1373.5 150.82 1400 179.2C1438.86 220.82 1424.67 234.11 1460.72 280C1494.67 323.21 1514.67 312.68 1540 357.41C1554.31 382.68 1540 388.71 1540 420C1540 490 1565 515 1540 560C1526.11 585 1498.58 569.38 1462.22 560C1428.58 551.32 1431.79 523.87 1400 523.87C1363.35 523.87 1364.49 549.89 1325.33 560C1294.49 567.96 1292.66 560 1260 560C1241.15 560 1222.31 567.81 1222.31 560C1222.31 548.96 1244.49 543.8 1260 522.31C1295 473.8 1313 475.74 1323.33 420C1335.45 354.59 1324.34 346.5 1304.91 280C1292.67 238.11 1295.91 217.57 1260 203.23C1203.46 180.65 1183.91 186.12 1120 206.15C1061.41 224.51 1062.02 237.71 1015 280C992.02 300.68 1006.98 321.81 980 332.09C919.48 355.15 903.02 361.74 840 346.67C794.13 335.7 799.23 315.3 762.22 280C729.23 248.53 737.68 213.74 700 213.13C636.57 212.11 616.39 294.3 560 276.74C498.97 257.74 515.39 206.08 465.16 140C445.39 113.98 440.11 118.28 420 92.54" stroke="rgba(82, 95, 163, 1)" stroke-width="2"></path><path d="M515.79 420C550.97 369.06 531.46 300 560 300C591.74 300 632.38 357.22 636.36 420C640.62 487.22 610.92 496.83 576.47 560C572.74 566.83 568.24 560 560 560C490 560 490 560 420 560C371.54 560 323.08 573.25 323.08 560C323.08 544.61 374.64 535.68 420 502.73C471 465.68 480.97 470.42 515.79 420" stroke="rgba(82, 95, 163, 1)" stroke-width="2"></path><path d="M1072.2 420C1072.2 400.47 1095.35 388.39 1120 388.39C1148.94 388.39 1179.39 399.76 1179.39 420C1179.39 445.26 1148.09 479.39 1120 479.39C1094.5 479.39 1072.2 445.97 1072.2 420" stroke="rgba(82, 95, 163, 1)" stroke-width="2"></path><path d="M137.02 560C137.02 558.9 137.8 556.41 140 556.41C153.29 556.41 168 559.1 168 560C168 560.89 154 560 140 560C138.51 560 137.02 560.7 137.02 560" stroke="rgba(82, 95, 163, 1)" stroke-width="2"></path><path d="M9.13 0C9.13 8 2.37 22.11 0 22.11C-2.19 22.11 -3.23 7.82 0 0C1.33 -3.23 9.13 -3.05 9.13 0" stroke="rgba(82, 95, 163, 1)" stroke-width="2"></path><path d="M420 33.22C407.05 33.22 396.94 10.58 396.94 0C396.94 -6.03 408.47 0 420 0C436.34 0 452.67 -6.85 452.67 0C452.67 9.76 434.92 33.22 420 33.22" stroke="rgba(82, 95, 163, 1)" stroke-width="2"></path><path d="M521.61 140C521.61 119.31 540.81 121.11 560 102.22C611.94 51.11 607.78 40.96 663.87 0C677.78 -10.15 681.93 0 700 0C730.27 0 751.74 -21.13 760.54 0C780.9 48.87 779.31 84.23 758.33 140C749.04 164.68 729.81 152.58 700 160.9C630.64 180.26 620.79 202.47 560 195.35C531.6 192.02 521.61 165.88 521.61 140" stroke="rgba(82, 95, 163, 1)" stroke-width="2"></path><path d="M925.22 140C949.39 125.39 951.75 126.94 980 122.97C1049.14 113.25 1051.2 107.45 1120 112.61C1164.65 115.96 1206.9 126.24 1206.9 140C1206.9 153.78 1163.57 154.25 1120 167.69C1050.12 189.25 1040.22 174.87 980 210C943.97 231.02 961.81 256.72 927.5 280C891.81 304.22 881.02 305 840 305C822.68 305 810.83 296.06 810.83 280C810.83 247.36 816.1 236.84 840 207.59C873.3 166.84 879.39 167.7 925.22 140" stroke="rgba(82, 95, 163, 1)" stroke-width="2"></path><path d="M0 222.96C6.71 222.96 25.67 254.15 25.67 280C25.67 294.34 7.67 303.33 0 303.33C-5.16 303.33 0 291.66 0 280C0 251.48 -6.12 222.96 0 222.96" stroke="rgba(82, 95, 163, 1)" stroke-width="2"></path><path d="M1370.94 280C1370.94 260.77 1387.13 249.2 1400 249.2C1410.93 249.2 1418.55 262.78 1418.55 280C1418.55 337.41 1411.8 398.46 1400 398.46C1388 398.46 1370.94 335.4 1370.94 280" stroke="rgba(82, 95, 163, 1)" stroke-width="2"></path><path d="M1418.67 420C1418.67 399.59 1488.32 398.59 1540 398.59C1548.98 398.59 1540 409.29 1540 420C1540 452.5 1559.46 485 1540 485C1498.79 485 1418.67 442.8 1418.67 420" stroke="rgba(82, 95, 163, 1)" stroke-width="2"></path></g><defs><mask id="SvgjsMask1013"><rect width="1440" height="560" fill="#ffffff"></rect></mask></defs></svg>